# xmcd
#
# Track frame offsets:
# 150
# 19430
# 38164
# 56151
# 76831
# 94409
#
# Disc length: 1567 seconds
#
# Revision: 0
# Processed by: cddbd v1.5PL3 Copyright (c) Steve Scherf et al.
# Submitted via: plextools 2.08
#
DISCID=49061d06
DTITLE=kenji nishimura with friends - Lonesome 60's
DYEAR=2004
DGENRE=Country
TTITLE0=kenji nishimura with friends - I really don't want to know
TTITLE1=kenji nishimura with friends - By the time I get to phoenix
TTITLE2=kenji nishimura with friends - Those old love letters from you
TTITLE3=kenji nishimura with friends - For the good time
TTITLE4=kenji nishimura with friends - Crazy
TTITLE5=kenji nishimura with friends - sunaasobi no hibi
EXTD=
EXTT0=
EXTT1=
EXTT2=
EXTT3=
EXTT4=
EXTT5=
PLAYORDER=
